<mxfile host="app.diagrams.net" agent="Mozilla/5.0 (Macintosh; Intel Mac OS X 10_15_7) AppleWebKit/537.36 (KHTML, like Gecko) Chrome/126.0.0.0 Safari/537.36" version="24.7.14">
  <diagram name="Page-1" id="ETeUXqFOxN1Py7SuuyMx">
    <mxGraphModel dx="954" dy="727" grid="0" gridSize="10" guides="1" tooltips="1" connect="1" arrows="1" fold="1" page="1" pageScale="1" pageWidth="850" pageHeight="1100" background="none" math="0" shadow="0">
      <root>
        <mxCell id="0" />
        <mxCell id="1" parent="0" />
        <mxCell id="8ui_CimHXRlWOaRY_n6d-4" style="edgeStyle=orthogonalEdgeStyle;rounded=1;orthogonalLoop=1;jettySize=auto;html=1;exitX=0;exitY=0;exitDx=0;exitDy=0;entryX=1;entryY=1;entryDx=0;entryDy=0;curved=0;endArrow=none;endFill=0;" parent="1" source="8ui_CimHXRlWOaRY_n6d-1" target="8ui_CimHXRlWOaRY_n6d-2" edge="1">
          <mxGeometry relative="1" as="geometry" />
        </mxCell>
        <mxCell id="8ui_CimHXRlWOaRY_n6d-6" style="edgeStyle=orthogonalEdgeStyle;rounded=0;orthogonalLoop=1;jettySize=auto;html=1;exitX=0.5;exitY=0;exitDx=0;exitDy=0;endArrow=none;endFill=0;curved=1;" parent="1" source="8ui_CimHXRlWOaRY_n6d-1" target="8ui_CimHXRlWOaRY_n6d-5" edge="1">
          <mxGeometry relative="1" as="geometry" />
        </mxCell>
        <mxCell id="8ui_CimHXRlWOaRY_n6d-14" style="edgeStyle=orthogonalEdgeStyle;rounded=0;orthogonalLoop=1;jettySize=auto;html=1;exitX=1;exitY=0;exitDx=0;exitDy=0;entryX=0.5;entryY=1;entryDx=0;entryDy=0;endArrow=none;endFill=0;curved=1;" parent="1" source="8ui_CimHXRlWOaRY_n6d-1" target="8ui_CimHXRlWOaRY_n6d-13" edge="1">
          <mxGeometry relative="1" as="geometry" />
        </mxCell>
        <mxCell id="8ui_CimHXRlWOaRY_n6d-16" style="edgeStyle=orthogonalEdgeStyle;rounded=0;orthogonalLoop=1;jettySize=auto;html=1;exitX=0;exitY=0.5;exitDx=0;exitDy=0;entryX=1;entryY=0.5;entryDx=0;entryDy=0;endArrow=none;endFill=0;curved=1;" parent="1" source="8ui_CimHXRlWOaRY_n6d-1" target="8ui_CimHXRlWOaRY_n6d-15" edge="1">
          <mxGeometry relative="1" as="geometry" />
        </mxCell>
        <mxCell id="8ui_CimHXRlWOaRY_n6d-1" value="Menneske" style="rounded=0;whiteSpace=wrap;html=1;" parent="1" vertex="1">
          <mxGeometry x="187" y="295" width="93" height="49" as="geometry" />
        </mxCell>
        <mxCell id="8ui_CimHXRlWOaRY_n6d-2" value="&lt;u&gt;Personnummer&lt;/u&gt;" style="ellipse;whiteSpace=wrap;html=1;" parent="1" vertex="1">
          <mxGeometry x="76" y="196" width="101" height="59" as="geometry" />
        </mxCell>
        <mxCell id="8ui_CimHXRlWOaRY_n6d-10" style="edgeStyle=orthogonalEdgeStyle;rounded=0;orthogonalLoop=1;jettySize=auto;html=1;exitX=0;exitY=0;exitDx=0;exitDy=0;entryX=0.5;entryY=1;entryDx=0;entryDy=0;endArrow=none;endFill=0;curved=1;" parent="1" source="8ui_CimHXRlWOaRY_n6d-5" target="8ui_CimHXRlWOaRY_n6d-7" edge="1">
          <mxGeometry relative="1" as="geometry" />
        </mxCell>
        <mxCell id="8ui_CimHXRlWOaRY_n6d-12" style="edgeStyle=orthogonalEdgeStyle;rounded=0;orthogonalLoop=1;jettySize=auto;html=1;exitX=1;exitY=0;exitDx=0;exitDy=0;entryX=0.5;entryY=1;entryDx=0;entryDy=0;endArrow=none;endFill=0;curved=1;" parent="1" source="8ui_CimHXRlWOaRY_n6d-5" target="8ui_CimHXRlWOaRY_n6d-11" edge="1">
          <mxGeometry relative="1" as="geometry" />
        </mxCell>
        <mxCell id="8ui_CimHXRlWOaRY_n6d-5" value="Navn" style="ellipse;whiteSpace=wrap;html=1;" parent="1" vertex="1">
          <mxGeometry x="187" y="213" width="96" height="42" as="geometry" />
        </mxCell>
        <mxCell id="8ui_CimHXRlWOaRY_n6d-7" value="Fornavn" style="ellipse;whiteSpace=wrap;html=1;" parent="1" vertex="1">
          <mxGeometry x="148" y="131" width="83" height="46" as="geometry" />
        </mxCell>
        <mxCell id="8ui_CimHXRlWOaRY_n6d-11" value="Etternavn" style="ellipse;whiteSpace=wrap;html=1;" parent="1" vertex="1">
          <mxGeometry x="244" y="131" width="84" height="46" as="geometry" />
        </mxCell>
        <mxCell id="8ui_CimHXRlWOaRY_n6d-13" value="FÃ¸dselsdato" style="ellipse;whiteSpace=wrap;html=1;" parent="1" vertex="1">
          <mxGeometry x="300" y="213" width="86" height="46" as="geometry" />
        </mxCell>
        <mxCell id="8ui_CimHXRlWOaRY_n6d-15" value="Alder" style="ellipse;whiteSpace=wrap;html=1;dashed=1;" parent="1" vertex="1">
          <mxGeometry x="58" y="295" width="90" height="40" as="geometry" />
        </mxCell>
        <mxCell id="8ui_CimHXRlWOaRY_n6d-27" style="edgeStyle=orthogonalEdgeStyle;rounded=0;orthogonalLoop=1;jettySize=auto;html=1;exitX=0;exitY=0;exitDx=0;exitDy=0;entryX=0;entryY=1;entryDx=0;entryDy=0;endArrow=none;endFill=0;curved=1;" parent="1" source="8ui_CimHXRlWOaRY_n6d-17" target="8ui_CimHXRlWOaRY_n6d-26" edge="1">
          <mxGeometry relative="1" as="geometry" />
        </mxCell>
        <mxCell id="8ui_CimHXRlWOaRY_n6d-29" style="edgeStyle=orthogonalEdgeStyle;rounded=0;orthogonalLoop=1;jettySize=auto;html=1;exitX=0.5;exitY=0;exitDx=0;exitDy=0;entryX=0.5;entryY=1;entryDx=0;entryDy=0;endArrow=none;endFill=0;curved=1;" parent="1" source="8ui_CimHXRlWOaRY_n6d-17" target="8ui_CimHXRlWOaRY_n6d-28" edge="1">
          <mxGeometry relative="1" as="geometry" />
        </mxCell>
        <mxCell id="8ui_CimHXRlWOaRY_n6d-40" style="edgeStyle=orthogonalEdgeStyle;rounded=0;orthogonalLoop=1;jettySize=auto;html=1;exitX=0.5;exitY=1;exitDx=0;exitDy=0;endArrow=none;endFill=0;shape=link;" parent="1" source="8ui_CimHXRlWOaRY_n6d-17" target="8ui_CimHXRlWOaRY_n6d-34" edge="1">
          <mxGeometry relative="1" as="geometry" />
        </mxCell>
        <mxCell id="8ui_CimHXRlWOaRY_n6d-17" value="Bolig" style="rounded=0;whiteSpace=wrap;html=1;" parent="1" vertex="1">
          <mxGeometry x="529" y="293" width="102" height="52" as="geometry" />
        </mxCell>
        <mxCell id="8ui_CimHXRlWOaRY_n6d-22" style="edgeStyle=orthogonalEdgeStyle;rounded=0;orthogonalLoop=1;jettySize=auto;html=1;exitX=1;exitY=0.5;exitDx=0;exitDy=0;entryX=0;entryY=0.5;entryDx=0;entryDy=0;endArrow=none;endFill=0;" parent="1" source="8ui_CimHXRlWOaRY_n6d-18" target="8ui_CimHXRlWOaRY_n6d-17" edge="1">
          <mxGeometry relative="1" as="geometry" />
        </mxCell>
        <mxCell id="8ui_CimHXRlWOaRY_n6d-18" value="Bor" style="rhombus;whiteSpace=wrap;html=1;" parent="1" vertex="1">
          <mxGeometry x="349" y="295" width="116" height="53" as="geometry" />
        </mxCell>
        <mxCell id="8ui_CimHXRlWOaRY_n6d-24" value="1" style="text;html=1;align=center;verticalAlign=middle;whiteSpace=wrap;rounded=0;" parent="1" vertex="1">
          <mxGeometry x="443" y="293" width="60" height="30" as="geometry" />
        </mxCell>
        <mxCell id="8ui_CimHXRlWOaRY_n6d-26" value="&lt;u&gt;Adresse&lt;/u&gt;" style="ellipse;whiteSpace=wrap;html=1;" parent="1" vertex="1">
          <mxGeometry x="458" y="196" width="85" height="53" as="geometry" />
        </mxCell>
        <mxCell id="8ui_CimHXRlWOaRY_n6d-28" value="Type" style="ellipse;whiteSpace=wrap;html=1;" parent="1" vertex="1">
          <mxGeometry x="583" y="196" width="89" height="53" as="geometry" />
        </mxCell>
        <mxCell id="8ui_CimHXRlWOaRY_n6d-47" style="edgeStyle=orthogonalEdgeStyle;rounded=0;orthogonalLoop=1;jettySize=auto;html=1;exitX=0;exitY=1;exitDx=0;exitDy=0;entryX=0.5;entryY=0;entryDx=0;entryDy=0;curved=1;endArrow=none;endFill=0;" parent="1" source="8ui_CimHXRlWOaRY_n6d-33" target="8ui_CimHXRlWOaRY_n6d-46" edge="1">
          <mxGeometry relative="1" as="geometry" />
        </mxCell>
        <mxCell id="8ui_CimHXRlWOaRY_n6d-49" style="edgeStyle=orthogonalEdgeStyle;rounded=1;orthogonalLoop=1;jettySize=auto;html=1;exitX=1;exitY=1;exitDx=0;exitDy=0;entryX=0;entryY=0;entryDx=0;entryDy=0;curved=0;endArrow=none;endFill=0;" parent="1" source="8ui_CimHXRlWOaRY_n6d-33" target="8ui_CimHXRlWOaRY_n6d-48" edge="1">
          <mxGeometry relative="1" as="geometry" />
        </mxCell>
        <mxCell id="8ui_CimHXRlWOaRY_n6d-33" value="Rom" style="shape=ext;margin=3;double=1;whiteSpace=wrap;html=1;align=center;" parent="1" vertex="1">
          <mxGeometry x="530" y="493" width="100" height="40" as="geometry" />
        </mxCell>
        <mxCell id="8ui_CimHXRlWOaRY_n6d-42" style="edgeStyle=orthogonalEdgeStyle;rounded=0;orthogonalLoop=1;jettySize=auto;html=1;exitX=0.5;exitY=1;exitDx=0;exitDy=0;entryX=0.5;entryY=0;entryDx=0;entryDy=0;endArrow=none;endFill=0;shape=link;" parent="1" source="8ui_CimHXRlWOaRY_n6d-34" target="8ui_CimHXRlWOaRY_n6d-33" edge="1">
          <mxGeometry relative="1" as="geometry" />
        </mxCell>
        <mxCell id="8ui_CimHXRlWOaRY_n6d-34" value="inneholder" style="shape=rhombus;double=1;perimeter=rhombusPerimeter;whiteSpace=wrap;html=1;align=center;" parent="1" vertex="1">
          <mxGeometry x="520" y="389" width="120" height="60" as="geometry" />
        </mxCell>
        <mxCell id="8ui_CimHXRlWOaRY_n6d-35" value="" style="shape=link;html=1;rounded=0;entryX=0;entryY=0.5;entryDx=0;entryDy=0;" parent="1" target="8ui_CimHXRlWOaRY_n6d-18" edge="1">
          <mxGeometry relative="1" as="geometry">
            <mxPoint x="280" y="322" as="sourcePoint" />
            <mxPoint x="340" y="322" as="targetPoint" />
          </mxGeometry>
        </mxCell>
        <mxCell id="8ui_CimHXRlWOaRY_n6d-36" value="N" style="resizable=0;html=1;whiteSpace=wrap;align=right;verticalAlign=bottom;" parent="8ui_CimHXRlWOaRY_n6d-35" connectable="0" vertex="1">
          <mxGeometry x="1" relative="1" as="geometry" />
        </mxCell>
        <mxCell id="8ui_CimHXRlWOaRY_n6d-43" value="N" style="text;html=1;align=center;verticalAlign=middle;whiteSpace=wrap;rounded=0;" parent="1" vertex="1">
          <mxGeometry x="567" y="441" width="60" height="30" as="geometry" />
        </mxCell>
        <mxCell id="8ui_CimHXRlWOaRY_n6d-44" value="1" style="text;html=1;align=center;verticalAlign=middle;whiteSpace=wrap;rounded=0;" parent="1" vertex="1">
          <mxGeometry x="565" y="370" width="60" height="30" as="geometry" />
        </mxCell>
        <mxCell id="8ui_CimHXRlWOaRY_n6d-46" value="&lt;span style=&quot;border-bottom: 1px dotted&quot;&gt;Navn&lt;/span&gt;" style="ellipse;whiteSpace=wrap;html=1;align=center;" parent="1" vertex="1">
          <mxGeometry x="454" y="562" width="100" height="40" as="geometry" />
        </mxCell>
        <mxCell id="8ui_CimHXRlWOaRY_n6d-48" value="BruksomrÃ¥der" style="ellipse;shape=doubleEllipse;margin=3;whiteSpace=wrap;html=1;align=center;" parent="1" vertex="1">
          <mxGeometry x="655" y="565" width="101" height="41" as="geometry" />
        </mxCell>
      </root>
    </mxGraphModel>
  </diagram>
</mxfile>
